REM DIRINDEX 1\2,1\3,1\4,1\5
REM DIRNAME "folder01","folder02","folder03","folder04","folder05"
TITLE ""
FILE "1Q_t_0878-0887.mp3" MP3
  TRACK 01 AUDIO
    TITLE "3:cjc172_3585"
    INDEX 01 00:00:00
  TRACK 02 AUDIO
    TITLE "0:"
    INDEX 01 00:01:25
  TRACK 03 AUDIO
    TITLE "4:cjc172_3586"
    INDEX 01 00:01:31
  TRACK 04 AUDIO
    TITLE "0:"
    INDEX 01 00:04:06
  TRACK 05 AUDIO
    TITLE "5:cjc172_3587"
    INDEX 01 00:04:14
  TRACK 06 AUDIO
    TITLE "0:"
    INDEX 01 00:09:23
  TRACK 07 AUDIO
    TITLE "3:cjc172_3588"
    INDEX 01 00:09:68
  TRACK 08 AUDIO
    TITLE "0:"
    INDEX 01 00:11:22
  TRACK 09 AUDIO
    TITLE "4:cjc172_3589"
    INDEX 01 00:11:32
  TRACK 10 AUDIO
    TITLE "0:"
    INDEX 01 00:13:62
  TRACK 11 AUDIO
    TITLE "5:cjc172_3590"
    INDEX 01 00:13:68
  TRACK 12 AUDIO
    TITLE "0:"
    INDEX 01 00:19:39
  TRACK 13 AUDIO
    TITLE "3:cjc172_3591"
    INDEX 01 00:20:13
  TRACK 14 AUDIO
    TITLE "0:"
    INDEX 01 00:21:24
  TRACK 15 AUDIO
    TITLE "4:cjc172_3592"
    INDEX 01 00:21:34
  TRACK 16 AUDIO
    TITLE "0:"
    INDEX 01 00:23:66
  TRACK 17 AUDIO
    TITLE "5:cjc172_3593"
    INDEX 01 00:23:74
  TRACK 18 AUDIO
    TITLE "0:"
    INDEX 01 00:30:07
  TRACK 19 AUDIO
    TITLE "3:cjc172_3594"
    INDEX 01 00:30:54
  TRACK 20 AUDIO
    TITLE "0:"
    INDEX 01 00:32:01
  TRACK 21 AUDIO
    TITLE "4:cjc172_3595"
    INDEX 01 00:32:08
  TRACK 22 AUDIO
    TITLE "0:"
    INDEX 01 00:36:71
  TRACK 23 AUDIO
    TITLE "5:cjc172_3596"
    INDEX 01 00:37:02
  TRACK 24 AUDIO
    TITLE "0:"
    INDEX 01 00:42:01
  TRACK 25 AUDIO
    TITLE "3:cjc172_3597"
    INDEX 01 00:42:46
  TRACK 26 AUDIO
    TITLE "0:"
    INDEX 01 00:43:57
  TRACK 27 AUDIO
    TITLE "4:cjc172_3598"
    INDEX 01 00:43:65
  TRACK 28 AUDIO
    TITLE "0:"
    INDEX 01 00:46:34
  TRACK 29 AUDIO
    TITLE "5:cjc172_3599"
    INDEX 01 00:46:40
  TRACK 30 AUDIO
    TITLE "0:"
    INDEX 01 00:53:16
  TRACK 31 AUDIO
    TITLE "3:cjc172_3600"
    INDEX 01 00:53:63
  TRACK 32 AUDIO
    TITLE "0:"
    INDEX 01 00:55:15
  TRACK 33 AUDIO
    TITLE "4:cjc172_3601"
    INDEX 01 00:55:27
  TRACK 34 AUDIO
    TITLE "0:"
    INDEX 01 00:58:37
  TRACK 35 AUDIO
    TITLE "5:cjc172_3602"
    INDEX 01 00:58:45
  TRACK 36 AUDIO
    TITLE "0:"
    INDEX 01 01:04:55
  TRACK 37 AUDIO
    TITLE "3:cjc172_3603"
    INDEX 01 01:05:27
  TRACK 38 AUDIO
    TITLE "0:"
    INDEX 01 01:06:23
  TRACK 39 AUDIO
    TITLE "4:cjc172_3604"
    INDEX 01 01:06:33
  TRACK 40 AUDIO
    TITLE "0:"
    INDEX 01 01:08:41
  TRACK 41 AUDIO
    TITLE "5:cjc172_3605"
    INDEX 01 01:08:49
  TRACK 42 AUDIO
    TITLE "0:"
    INDEX 01 01:14:71
  TRACK 43 AUDIO
    TITLE "3:cjc172_3606"
    INDEX 01 01:15:41
  TRACK 44 AUDIO
    TITLE "0:"
    INDEX 01 01:16:62
  TRACK 45 AUDIO
    TITLE "4:cjc172_3607"
    INDEX 01 01:16:72
  TRACK 46 AUDIO
    TITLE "0:"
    INDEX 01 01:19:71
  TRACK 47 AUDIO
    TITLE "5:cjc172_3608"
    INDEX 01 01:20:05
  TRACK 48 AUDIO
    TITLE "0:"
    INDEX 01 01:25:30
  TRACK 49 AUDIO
    TITLE "3:cjc172_3609"
    INDEX 01 01:25:73
  TRACK 50 AUDIO
    TITLE "0:"
    INDEX 01 01:27:39
  TRACK 51 AUDIO
    TITLE "4:cjc172_3610"
    INDEX 01 01:27:49
  TRACK 52 AUDIO
    TITLE "0:"
    INDEX 01 01:30:14
  TRACK 53 AUDIO
    TITLE "5:cjc172_3611"
    INDEX 01 01:30:21
  TRACK 54 AUDIO
    TITLE "0:"
    INDEX 01 01:37:33
  TRACK 55 AUDIO
    TITLE "3:cjc172_3612"
    INDEX 01 01:38:07
  TRACK 56 AUDIO
    TITLE "0:"
    INDEX 01 01:39:05
  TRACK 57 AUDIO
    TITLE "4:cjc172_3613"
    INDEX 01 01:39:16
  TRACK 58 AUDIO
    TITLE "0:"
    INDEX 01 01:41:35
  TRACK 59 AUDIO
    TITLE "5:cjc172_3614"
    INDEX 01 01:41:41
  TRACK 60 AUDIO
    TITLE "0:"
    INDEX 01 01:46:38
